# xmcd CD database file
#
# Track frame offsets:
#	150
#	14715
#	29570
#	41830
#	58105
#	72875
#	87505
#	101585
#	116045
#	130660
#
# Disc length: 1949 seconds
#
# Revision: 0
# Processed by: cddbd v1.5.2PL0 Copyright (c) Steve Scherf et al.
# Submitted via: CDex 1.51
#
DISCID=90079b0a
DTITLE=MARTY ROBBINS - Everything I've Always Wanted
DYEAR=1900
DGENRE=Country
TTITLE0=The Woman In My Bed 
TTITLE1=Gene Autry, My Hero 
TTITLE2=There's No Wings On My Angel 
TTITLE3=Holding On To You 
TTITLE4=Another Cup Of Coffee 
TTITLE5=My Greatest Memory
TTITLE6=Completely Out Of Love 
TTITLE7=An Occasional Rose
TTITLE8=I'll Go On Alone 
TTITLE9=Crossroads of Life 
EXTD=
EXTT0=
EXTT1=
EXTT2=
EXTT3=
EXTT4=
EXTT5=
EXTT6=
EXTT7=
EXTT8=
EXTT9=
PLAYORDER=
